<svg width="28" height="28" viewBox="0 0 28 28" fill="none" xmlns="http://www.w3.org/2000/svg">
<path d="M27.3053 17.2518L27.3038 17.2514C25.6892 15.9253 23.7777 14.9054 21.6908 14.2564L15.9162 12.4602C15.4929 10.9337 14.1762 9.64108 12.3266 9.17271C11.6304 8.99584 10.9268 8.95513 10.2507 9.02817C10.2497 8.70893 10.2243 8.39852 10.1863 8.09399H17.7148C18.5081 8.09399 19.1512 7.53193 19.1512 6.8384V2.07242C19.1512 1.37927 18.5081 0.817261 17.7148 0.817261H8.63367C6.96962 0.817261 5.54438 1.67671 4.8784 2.91088C2.12445 3.0617 0 5.69678 0 9.04381C0 10.7434 0.549257 12.2599 1.44831 13.362C1.65974 13.6208 1.89138 13.8544 2.13885 14.0644C1.04994 15.7858 1.31805 17.9878 2.98939 19.4484C3.99999 20.3318 5.32378 20.772 6.6477 20.772C7.10804 20.772 7.56839 20.7186 8.01576 20.6124L9.52124 21.7802C9.69227 21.9121 9.90857 21.9805 10.1267 21.9805C10.2771 21.9805 10.428 21.9481 10.5654 21.8818L11.205 21.5742C11.244 21.5554 11.2863 21.5461 11.3285 21.5461C11.3949 21.5461 11.4602 21.5683 11.5092 21.6112C11.59 21.681 11.6077 21.7893 11.5539 21.8771L11.2791 22.3232C11.0787 22.648 11.1595 23.0512 11.4761 23.2965C11.6468 23.4288 11.8625 23.4974 12.0807 23.4974C12.2306 23.4974 12.3819 23.465 12.5194 23.3985L13.0177 23.1587C13.0567 23.1402 13.099 23.131 13.1411 23.131C13.2075 23.131 13.2728 23.1533 13.3218 23.1957C13.4025 23.2662 13.4208 23.3738 13.367 23.4616L13.3527 23.4842C13.0422 23.9867 13.1681 24.6092 13.6573 24.9881C13.9212 25.1927 14.2551 25.2985 14.5919 25.2985C14.8241 25.2985 15.0576 25.248 15.2705 25.1456L15.2845 25.1398C15.3234 25.1208 15.3657 25.1115 15.4079 25.1115C15.4737 25.1115 15.5387 25.1338 15.5886 25.1766C15.6694 25.2464 15.6871 25.3544 15.6333 25.4426C15.5267 25.6152 15.5132 25.821 15.5972 26.0038C15.6799 26.1861 15.8524 26.3268 16.0658 26.3873C16.0658 26.3873 17.745 26.8637 18.3084 27.0228C18.5131 27.0806 18.7496 26.998 18.8514 26.909C18.9932 26.7851 19.0432 26.602 18.9821 26.4355L18.9811 26.4343C18.2979 24.5919 17.1858 22.8927 15.7154 21.4448L11.6473 17.4369C12.1182 15.9213 11.6775 14.234 10.3157 13.0444C9.3047 12.1597 7.97835 11.7174 6.65256 11.7174C5.50167 11.7174 4.36425 12.0707 3.41906 12.7369C3.20039 12.5348 3.00436 12.2929 2.82659 12.0241C2.30134 11.2297 1.96832 10.1829 1.96832 9.04364C1.96832 6.94289 3.07644 5.12779 4.50074 4.7081C4.64103 6.46738 6.20039 7.86916 8.19265 8.0548C8.24746 8.37524 8.283 8.7038 8.283 9.04364C8.283 9.24619 8.25076 9.44568 8.23062 9.64686C7.6414 9.95476 7.12824 10.3656 6.71498 10.8596C7.58572 10.8671 8.42566 11.0348 9.19695 11.3406C9.43245 11.2935 9.6775 11.2759 9.92634 11.2982C10.0244 11.307 10.1123 11.3532 10.1676 11.4246C10.2224 11.4956 10.2387 11.5846 10.2114 11.6674L10.1614 11.8182C10.4618 12.001 10.7476 12.2051 11.0115 12.4358C12.4387 13.683 13.0681 15.4698 12.7169 17.1946L13.121 17.5929C13.6202 17.3829 14.085 17.1115 14.4862 16.7725L16.4492 17.1607C16.8254 17.2345 17.2146 17.0947 17.4203 16.8099L17.811 16.271C17.8711 16.1861 17.9883 16.1474 18.0979 16.1752C18.207 16.202 18.2824 16.2895 18.2839 16.389L18.2887 16.896C18.2925 17.2649 18.5857 17.584 18.9984 17.6656C19.3741 17.7404 19.7629 17.5996 19.9685 17.3152L20.2727 16.8952C20.3338 16.8111 20.4506 16.7721 20.5596 16.7989C20.6692 16.8272 20.7447 16.9136 20.7461 17.0133L20.7456 17.0389C20.7509 17.6101 21.2045 18.1025 21.8421 18.228C22.4237 18.3431 23.0243 18.1259 23.3424 17.6862L23.3511 17.6752C23.4117 17.5908 23.5279 17.5522 23.6379 17.5795C23.7476 17.6063 23.8225 17.6938 23.8239 17.7933C23.8259 17.9899 23.9278 18.1755 24.1021 18.3004C24.2752 18.4251 24.5039 18.476 24.724 18.439L27.0392 18.0503C27.2368 18.0172 27.3963 17.8907 27.452 17.7219C27.5081 17.5535 27.4509 17.372 27.3053 17.2518ZM4.4132 16.676C4.35028 16.7306 4.26567 16.7608 4.17819 16.7608C4.16859 16.7608 4.15855 16.7604 4.14889 16.7596C4.05087 16.7521 3.96196 16.7067 3.90578 16.6361C3.50405 16.1294 3.41127 15.4973 3.6141 14.9281C4.31481 15.2429 5.75738 15.3424 6.30071 15.0251L4.4132 16.676ZM5.77502 4.7184C6.2512 4.86458 6.68318 5.17832 7.05754 5.59463C6.4516 5.56182 5.95135 5.20524 5.77502 4.7184ZM6.63903 3.15992C6.79759 3.10786 6.96775 3.07554 7.14695 3.07554C7.94505 3.07554 8.59245 3.64137 8.59245 4.33915C8.59245 4.3845 8.58229 4.42734 8.57699 4.47149C8.02873 3.87743 7.37279 3.42291 6.63903 3.15992Z" fill="#F0F0F5"/>
</svg>
