<?xml version="1.0" encoding="iso-8859-1"?>
<!-- Generator: Adobe Illustrator 18.0.0, SVG Export Plug-In . SVG Version: 6.00 Build 0)  -->
<!DOCTYPE svg PUBLIC "-//W3C//DTD SVG 1.1//EN" "http://www.w3.org/Graphics/SVG/1.1/DTD/svg11.dtd">
<svg version="1.1" id="Capa_1" xmlns="http://www.w3.org/2000/svg" xmlns:xlink="http://www.w3.org/1999/xlink" x="0px" y="0px"
	 viewBox="0 0 481.141 481.141" style="enable-background:new 0 0 481.141 481.141;" xml:space="preserve">
<path d="M458.186,301.52l-0.023-0.008c-25.895-24.33-56.553-43.041-90.023-54.948l-92.613-32.955
	c-6.789-28.006-27.905-51.721-57.569-60.314c-11.167-3.245-22.45-3.992-33.294-2.652c-0.016-5.857-0.423-11.552-1.032-17.139
	h120.742c12.723,0,23.036-10.312,23.036-23.036V23.028C327.41,10.311,317.097,0,304.374,0H158.73
	c-26.688,0-49.546,15.768-60.227,38.411c-44.168,2.767-78.24,51.112-78.24,112.519c0,31.182,8.809,59.004,23.228,79.225
	c3.391,4.748,7.106,9.033,11.075,12.886c-17.464,31.583-13.164,71.982,13.641,98.778c16.208,16.208,37.439,24.284,58.672,24.284
	c7.383,0,14.766-0.979,21.941-2.928l24.145,21.425c2.743,2.42,6.212,3.676,9.71,3.676c2.413,0,4.833-0.594,7.036-1.811l10.258-5.643
	c0.625-0.346,1.304-0.516,1.981-0.516c1.064,0,2.112,0.408,2.898,1.194c1.296,1.28,1.58,3.268,0.717,4.879l-4.408,8.184
	c-3.213,5.959-1.918,13.356,3.16,17.857c2.737,2.428,6.197,3.685,9.696,3.685c2.404,0,4.831-0.594,7.037-1.813l7.991-4.4
	c0.625-0.339,1.304-0.508,1.98-0.508c1.064,0,2.112,0.408,2.898,1.186c1.294,1.294,1.588,3.268,0.725,4.879l-0.23,0.415
	c-4.98,9.218-2.96,20.64,4.885,27.591c4.232,3.754,9.588,5.695,14.99,5.695c3.724,0,7.469-0.926,10.883-2.805l0.224-0.107
	c0.624-0.348,1.302-0.518,1.979-0.518c1.056,0,2.098,0.408,2.898,1.194c1.296,1.28,1.58,3.261,0.718,4.879
	c-1.711,3.168-1.927,6.944-0.579,10.297c1.326,3.345,4.093,5.925,7.515,7.036c0,0,26.931,8.74,35.967,11.659
	c3.282,1.061,7.076-0.454,8.709-2.088c2.273-2.272,3.075-5.633,2.096-8.686l-0.016-0.023
	c-10.958-33.802-28.793-64.977-52.376-91.541l-65.244-73.531c7.552-27.806,0.484-58.764-21.357-80.589
	c-16.214-16.23-37.486-24.346-58.749-24.346c-18.458,0-36.7,6.482-51.859,18.705c-3.507-3.708-6.651-8.146-9.502-13.078
	c-8.424-14.575-13.765-33.78-13.765-54.681c0-38.542,17.772-71.843,40.615-79.543c2.25,32.277,27.259,57.995,59.211,61.401
	c0.879,5.879,1.449,11.907,1.449,18.142c0,3.716-0.517,7.376-0.84,11.067c-9.45,5.649-17.68,13.186-24.308,22.249
	c13.965,0.139,27.436,3.215,39.806,8.825c3.777-0.863,7.707-1.187,11.698-0.778c1.572,0.163,2.983,1.01,3.869,2.32
	c0.879,1.302,1.141,2.936,0.703,4.454l-0.802,2.767c4.817,3.353,9.402,7.098,13.634,11.33c22.889,22.882,32.984,55.665,27.351,87.31
	l6.481,7.307c8.007-3.854,15.46-8.833,21.895-15.052l31.483,7.122c6.034,1.355,12.276-1.211,15.575-6.436l6.265-9.887
	c0.964-1.558,2.844-2.267,4.601-1.757c1.75,0.492,2.959,2.096,2.983,3.922l0.077,9.302c0.062,6.768,4.764,12.623,11.383,14.12
	c6.026,1.371,12.261-1.211,15.559-6.43l4.879-7.705c0.979-1.542,2.852-2.259,4.601-1.767c1.757,0.519,2.968,2.104,2.991,3.933
	l-0.008,0.47c0.084,10.48,7.36,19.514,17.586,21.817c9.327,2.112,18.959-1.873,24.061-9.941l0.139-0.201
	c0.973-1.548,2.836-2.258,4.601-1.756c1.758,0.492,2.96,2.096,2.983,3.922c0.032,3.607,1.666,7.013,4.462,9.303
	c2.775,2.289,6.443,3.222,9.974,2.543l37.131-7.13c3.168-0.607,5.727-2.928,6.62-6.026
	C461.439,307.054,460.522,303.725,458.186,301.52z M91.042,290.955c-1.009,1.003-2.366,1.557-3.769,1.557
	c-0.154,0-0.315-0.008-0.47-0.022c-1.572-0.139-2.998-0.972-3.899-2.267c-6.443-9.295-7.931-20.893-4.678-31.336
	c11.238,5.776,34.374,7.602,43.088,1.78L91.042,290.955z M112.883,71.573c7.637,2.682,14.565,8.438,20.569,16.076
	C123.734,87.047,115.711,80.505,112.883,71.573z M126.74,42.98c2.543-0.955,5.272-1.548,8.146-1.548
	c12.8,0,23.183,10.381,23.183,23.183c0,0.832-0.163,1.618-0.248,2.428C149.028,56.144,138.508,47.805,126.74,42.98z"/>
<g>
</g>
<g>
</g>
<g>
</g>
<g>
</g>
<g>
</g>
<g>
</g>
<g>
</g>
<g>
</g>
<g>
</g>
<g>
</g>
<g>
</g>
<g>
</g>
<g>
</g>
<g>
</g>
<g>
</g>
</svg>
