<svg id="Capa_1" enable-background="new 0 0 512.002 512.002" height="30" stroke="#5166B9" stroke-width="2" viewBox="0 0 512.002 512.002" width="30" xmlns="http://www.w3.org/2000/svg"><g><path d="m253.545 366.262c60.798 0 110.26-49.462 110.26-110.26s-49.462-110.261-110.26-110.261-110.261 49.463-110.261 110.261 49.463 110.26 110.261 110.26zm0-205.521c52.526 0 95.26 42.733 95.26 95.261 0 52.526-42.733 95.26-95.26 95.26s-95.261-42.733-95.261-95.26 42.734-95.261 95.261-95.261z"/><path d="m227.845 296.235c6.7 4.382 11.581 6.076 17.694 6.647v4.41c0 4.143 3.357 7.5 7.5 7.5s7.5-3.357 7.5-7.5v-5.116c12.171-3.147 19.972-13.567 21.7-23.845 2.232-13.279-4.978-25.279-17.94-29.861-1.238-.438-2.498-.892-3.76-1.359v-23.602c4.613.979 7.777 2.843 7.908 2.922 3.499 2.173 8.103 1.123 10.304-2.367 2.211-3.504 1.162-8.135-2.341-10.345-.399-.251-6.757-4.182-15.871-5.428v-3.581c0-4.143-3.357-7.5-7.5-7.5s-7.5 3.357-7.5 7.5v4.435c-.414.109-.827.219-1.244.345-8.747 2.635-15.278 10.101-17.047 19.482-1.623 8.615 1.177 16.954 7.309 21.764 2.86 2.243 6.341 4.3 10.982 6.434v30.634c-3.191-.481-5.632-1.603-9.481-4.121-3.467-2.267-8.115-1.296-10.383 2.17s-1.296 8.115 2.17 10.382zm39.601-20.39c-.646 3.841-2.991 7.873-6.907 10.231v-22.959c7.56 3.331 7.377 9.937 6.907 12.728zm-23.631-36.912c-1.683-1.319-2.399-4.14-1.826-7.183.4-2.122 1.527-4.554 3.551-6.237v14.646c-.615-.402-1.196-.81-1.725-1.226z"/><path d="m420.992 93.349c-2.586-3.235-7.304-3.764-10.541-1.178-3.236 2.585-3.764 7.305-1.178 10.541l7.522 9.415h-47.695c-4.143 0-7.5 3.357-7.5 7.5s3.357 7.5 7.5 7.5h47.695l-7.522 9.415c-2.586 3.236-2.059 7.956 1.178 10.541 3.257 2.601 7.973 2.037 10.541-1.178l17.254-21.597c2.188-2.738 2.188-6.625 0-9.363z"/><path d="m91.011 418.654c2.578 3.226 7.295 3.771 10.541 1.178 3.236-2.585 3.764-7.305 1.178-10.541l-7.522-9.415h47.694c4.143 0 7.5-3.357 7.5-7.5s-3.357-7.5-7.5-7.5h-47.695l7.522-9.415c2.586-3.236 2.059-7.956-1.178-10.541-3.237-2.586-7.957-2.059-10.541 1.178l-17.255 21.597c-2.188 2.738-2.188 6.625 0 9.363z"/><path d="m59.456 442.869h156.215c4.143 0 7.5-3.357 7.5-7.5s-3.357-7.5-7.5-7.5h-153.667v-18.389c0-3.041-1.836-5.78-4.648-6.937-2.815-1.159-6.045-.5-8.184 1.662l-47.003 47.512c-2.891 2.922-2.891 7.627 0 10.549l47.003 47.511c2.127 2.151 5.36 2.825 8.184 1.662 2.812-1.156 4.648-3.896 4.648-6.937v-18.388h153.667c4.143 0 7.5-3.357 7.5-7.5s-3.357-7.5-7.5-7.5h-156.215c-6.866 0-12.452 5.586-12.452 12.451v2.691l-28.953-29.266 28.953-29.266v2.691c0 6.868 5.586 12.454 12.452 12.454z"/><path d="m253.545 109c-81.058 0-147.002 65.944-147.002 147.002 0 29.575 8.75 58.094 25.303 82.474 2.327 3.427 6.992 4.318 10.418 1.992 3.427-2.327 4.318-6.991 1.992-10.418-14.859-21.884-22.713-47.489-22.713-74.048 0-72.786 59.216-132.002 132.002-132.002s132.002 59.216 132.002 132.002-59.216 132.002-132.002 132.002c-33.963 0-66.229-12.873-90.856-36.247-3.004-2.853-7.752-2.729-10.603.276-2.852 3.004-2.729 7.751.276 10.603 27.426 26.032 63.359 40.368 101.183 40.368 81.058 0 147.002-65.944 147.002-147.002s-65.944-147.002-147.002-147.002z"/><path d="m509.833 49.738-47.003-47.511c-2.139-2.162-5.37-2.822-8.184-1.662-2.812 1.156-4.648 3.896-4.648 6.937v18.388h-34.588c-4.143 0-7.5 3.357-7.5 7.5s3.357 7.5 7.5 7.5h37.137c6.865 0 12.451-5.586 12.451-12.451v-2.691l28.953 29.266-28.953 29.265v-2.69c0-6.866-5.586-12.452-12.451-12.452h-156.216c-4.143 0-7.5 3.357-7.5 7.5s3.357 7.5 7.5 7.5h153.667v18.388c0 3.041 1.836 5.78 4.648 6.937 2.829 1.165 6.06.485 8.184-1.662l47.003-47.51c2.891-2.925 2.891-7.63 0-10.552z"/><path d="m296.331 40.89h89.092c4.143 0 7.5-3.357 7.5-7.5s-3.357-7.5-7.5-7.5h-89.092c-4.143 0-7.5 3.357-7.5 7.5s3.358 7.5 7.5 7.5z"/></g></svg>